ffmpeg started on 2025-05-13 at 10:41:02
Report written to "D:\Convert\FFMetrics\reports\psnr_report-6.txt"
Log level: 32
Command line:
ffmpeg -hide_banner -nostdin -i "G:\\\xc0\xed\xe8\xec\xe5\\\xce\xed\xe3\xee\xe8\xed\xe3\xe8\\!_35_\xcb\xe5\xf2\xee_2024\\DreamCast-1\\\xdf \xf1\xf2\xe0\xeb \xf1\xe0\xec\xfb\xec \xf1\xe8\xeb\xfc\xed\xfb\xec \xf1 \xef\xf0\xee\xe2\xe0\xeb\xfc\xed\xfb\xec \xed\xe0\xe2\xfb\xea\xee\xec \xab\xed\xe5\xed\xee\xf0\xec\xe0\xeb\xfc\xed\xee\xe5 \xf1\xee\xf1\xf2\xee\xff\xed\xe8\xe5\xbb, \xff \xf0\xe0\xe7\xf0\xf3\xf8\xf3 \xe2\xf1\xb8\\[DC] Hazurewaku - 04_Telegram_HEVC.mkv" -i "G:\\\xc0\xed\xe8\xec\xe5\\\xce\xed\xe3\xee\xe8\xed\xe3\xe8\\!_35_\xcb\xe5\xf2\xee_2024\\DreamCast-1\\\xdf \xf1\xf2\xe0\xeb \xf1\xe0\xec\xfb\xec \xf1\xe8\xeb\xfc\xed\xfb\xec \xf1 \xef\xf0\xee\xe2\xe0\xeb\xfc\xed\xfb\xec \xed\xe0\xe2\xfb\xea\xee\xec \xab\xed\xe5\xed\xee\xf0\xec\xe0\xeb\xfc\xed\xee\xe5 \xf1\xee\xf1\xf2\xee\xff\xed\xe8\xe5\xbb, \xff \xf0\xe0\xe7\xf0\xf3\xf8\xf3 \xe2\xf1\xb8\\[DC] Hazurewaku - 04_Telegram.mp4" -lavfi "[0:v]settb=AVTB,setpts=PTS-STARTPTS,format=pix_fmts=yuv420p10,fps=24000/1001,scale=1920:1080:flags=bicubic[main];[1:v]settb=AVTB,setpts=PTS-STARTPTS,format=pix_fmts=yuv420p,fps=24000/1001,scale=1920:1080:flags=bicubic[ref];[main][ref]psnr=eof_action=endall:stats_file='D\\:/Convert/FFMetrics/logs/psnr_logfile-6.txt'" -f null -
Input #0, matroska,webm, from 'G:\Аниме\Онгоинги\!_35_Лето_2024\DreamCast-1\Я стал самым сильным с провальным навыком «ненормальное состояние», я разрушу всё\[DC] Hazurewaku - 04_Telegram_HEVC.mkv':
  Metadata:
    COMPATIBLE_BRANDS: isomiso2avc1mp41
    MAJOR_BRAND     : isom
    MINOR_VERSION   : 512
    ENCODER         : Lavf61.7.100
  Duration: 00:24:16.73, start: -0.021000, bitrate: 1230 kb/s
  Stream #0:0: Video: hevc (Main 10), yuv420p10le(tv, bt709, progressive), 1920x1080 [SAR 1:1 DAR 16:9], 23.98 fps, 23.98 tbr, 1k tbn (default)
      Metadata:
        HANDLER_NAME    : VideoHandler
        VENDOR_ID       : [0][0][0][0]
        ENCODER         : Lavc61.19.100 libx265
        BPS             : 1032645
        DURATION        : 00:24:16.579708333
        NUMBER_OF_FRAMES: 34923
        NUMBER_OF_BYTES : 188016250
        _STATISTICS_WRITING_APP: mkvpropedit v66.0.0 ('Josie') 64-bit
        _STATISTICS_WRITING_DATE_UTC: 2025-05-11 14:53:27
        _STATISTICS_TAGS: BPS DURATION NUMBER_OF_FRAMES NUMBER_OF_BYTES
  Stream #0:1: Audio: aac (LC), 48000 Hz, stereo, fltp (default)
      Metadata:
        HANDLER_NAME    : SoundHandler
        VENDOR_ID       : [0][0][0][0]
        ENCODER         : Lavc61.19.100 aac
        BPS             : 193476
        DURATION        : 00:24:16.725000000
        NUMBER_OF_FRAMES: 68285
        NUMBER_OF_BYTES : 35230337
        _STATISTICS_WRITING_APP: mkvpropedit v66.0.0 ('Josie') 64-bit
        _STATISTICS_WRITING_DATE_UTC: 2025-05-11 14:53:27
        _STATISTICS_TAGS: BPS DURATION NUMBER_OF_FRAMES NUMBER_OF_BYTES
Input #1, mov,mp4,m4a,3gp,3g2,mj2, from 'G:\Аниме\Онгоинги\!_35_Лето_2024\DreamCast-1\Я стал самым сильным с провальным навыком «ненормальное состояние», я разрушу всё\[DC] Hazurewaku - 04_Telegram.mp4':
  Metadata:
    major_brand     : isom
    minor_version   : 512
    compatible_brands: isomiso2avc1mp41
    encoder         : Lavf61.1.100
  Duration: 00:24:16.70, start: 0.000000, bitrate: 3823 kb/s
  Stream #1:0[0x1](und): Video: h264 (High) (avc1 / 0x31637661), yuv420p(tv, bt709, progressive), 1920x1080 [SAR 1:1 DAR 16:9], 3676 kb/s, 23.98 fps, 23.98 tbr, 24k tbn (default)
      Metadata:
        handler_name    : VideoHandler
        vendor_id       : [0][0][0][0]
        encoder         : Lavc61.3.100 h264_qsv
  Stream #1:1[0x2](und): Audio: aac (HE-AACv2) (mp4a / 0x6134706D), 48000 Hz, stereo, fltp, 144 kb/s (default)
      Metadata:
        handler_name    : SoundHandler
        vendor_id       : [0][0][0][0]
Stream mapping:
  Stream #0:0 (hevc) -> settb:default
  Stream #1:0 (h264) -> settb:default
  psnr:default -> Stream #0:0 (wrapped_avframe)
  Stream #0:1 -> #0:1 (aac (native) -> pcm_s16le (native))
Output #0, null, to 'pipe:':
  Metadata:
    COMPATIBLE_BRANDS: isomiso2avc1mp41
    MAJOR_BRAND     : isom
    MINOR_VERSION   : 512
    encoder         : Lavf61.7.100
  Stream #0:0: Video: wrapped_avframe, yuv420p10le(tv, bt709, progressive), 1920x1080 [SAR 1:1 DAR 16:9], q=2-31, 200 kb/s, 23.98 fps, 23.98 tbn
      Metadata:
        encoder         : Lavc61.19.100 wrapped_avframe
  Stream #0:1: Audio: pcm_s16le, 48000 Hz, stereo, s16, 1536 kb/s (default)
      Metadata:
        HANDLER_NAME    : SoundHandler
        VENDOR_ID       : [0][0][0][0]
        _STATISTICS_TAGS: BPS DURATION NUMBER_OF_FRAMES NUMBER_OF_BYTES
        BPS             : 193476
        DURATION        : 00:24:16.725000000
        NUMBER_OF_FRAMES: 68285
        NUMBER_OF_BYTES : 35230337
        _STATISTICS_WRITING_APP: mkvpropedit v66.0.0 ('Josie') 64-bit
        _STATISTICS_WRITING_DATE_UTC: 2025-05-11 14:53:27
        encoder         : Lavc61.19.100 pcm_s16le
frame=  161 fps=0.0 q=-0.0 size=N/A time=00:00:06.71 bitrate=N/A speed=12.9x    frame=  297 fps=285 q=-0.0 size=N/A time=00:00:12.38 bitrate=N/A speed=11.9x    frame=  509 fps=329 q=-0.0 size=N/A time=00:00:21.22 bitrate=N/A speed=13.7x    frame=  750 fps=362 q=-0.0 size=N/A time=00:00:31.28 bitrate=N/A speed=15.1x    frame=  976 fps=377 q=-0.0 size=N/A time=00:00:40.74 bitrate=N/A speed=15.7x    frame= 1143 fps=369 q=-0.0 size=N/A time=00:00:47.71 bitrate=N/A speed=15.4x    frame= 1357 fps=375 q=-0.0 size=N/A time=00:00:56.59 bitrate=N/A speed=15.6x    frame= 1587 fps=384 q=-0.0 size=N/A time=00:01:06.19 bitrate=N/A speed=  16x    frame= 1844 fps=397 q=-0.0 size=N/A time=00:01:16.91 bitrate=N/A speed=16.6x    frame= 2039 fps=395 q=-0.0 size=N/A time=00:01:25.04 bitrate=N/A speed=16.5x    frame= 2181 fps=384 q=-0.0 size=N/A time=00:01:30.96 bitrate=N/A speed=  16x    frame= 2390 fps=386 q=-0.0 size=N/A time=00:01:39.68 bitrate=N/A speed=16.1x    frame= 2592 fps=386 q=-0.0 size=N/A time=00:01:48.10 bitrate=N/A speed=16.1x    frame= 2802 fps=388 q=-0.0 size=N/A time=00:01:56.86 bitrate=N/A speed=16.2x    frame= 2963 fps=383 q=-0.0 size=N/A time=00:02:03.58 bitrate=N/A speed=  16x    frame= 3138 fps=380 q=-0.0 size=N/A time=00:02:10.88 bitrate=N/A speed=15.8x    frame= 3304 fps=377 q=-0.0 size=N/A time=00:02:17.80 bitrate=N/A speed=15.7x    frame= 3489 fps=376 q=-0.0 size=N/A time=00:02:25.52 bitrate=N/A speed=15.7x    frame= 3691 fps=376 q=-0.0 size=N/A time=00:02:33.94 bitrate=N/A speed=15.7x    frame= 3891 fps=377 q=-0.0 size=N/A time=00:02:42.28 bitrate=N/A speed=15.7x    frame= 4067 fps=375 q=-0.0 size=N/A time=00:02:49.62 bitrate=N/A speed=15.7x    frame= 4262 fps=376 q=-0.0 size=N/A time=00:02:57.76 bitrate=N/A speed=15.7x    frame= 4498 fps=379 q=-0.0 size=N/A time=00:03:07.60 bitrate=N/A speed=15.8x    frame= 4707 fps=380 q=-0.0 size=N/A time=00:03:16.32 bitrate=N/A speed=15.9x    frame= 4934 fps=382 q=-0.0 size=N/A time=00:03:25.78 bitrate=N/A speed=  16x    frame= 5188 fps=387 q=-0.0 size=N/A time=00:03:36.38 bitrate=N/A speed=16.1x    frame= 5424 fps=389 q=-0.0 size=N/A time=00:03:46.22 bitrate=N/A speed=16.2x    frame= 5675 fps=393 q=-0.0 size=N/A time=00:03:56.69 bitrate=N/A speed=16.4x    frame= 5917 fps=395 q=-0.0 size=N/A time=00:04:06.78 bitrate=N/A speed=16.5x    frame= 6160 fps=398 q=-0.0 size=N/A time=00:04:16.92 bitrate=N/A speed=16.6x    frame= 6385 fps=399 q=-0.0 size=N/A time=00:04:26.30 bitrate=N/A speed=16.7x    frame= 6593 fps=400 q=-0.0 size=N/A time=00:04:34.98 bitrate=N/A speed=16.7x    frame= 6820 fps=401 q=-0.0 size=N/A time=00:04:44.45 bitrate=N/A speed=16.7x    frame= 7066 fps=403 q=-0.0 size=N/A time=00:04:54.71 bitrate=N/A speed=16.8x    frame= 7302 fps=404 q=-0.0 size=N/A time=00:05:04.55 bitrate=N/A speed=16.9x    frame= 7510 fps=405 q=-0.0 size=N/A time=00:05:13.22 bitrate=N/A speed=16.9x    frame= 7761 fps=407 q=-0.0 size=N/A time=00:05:23.69 bitrate=N/A speed=  17x    frame= 7992 fps=408 q=-0.0 size=N/A time=00:05:33.33 bitrate=N/A speed=  17x    frame= 8235 fps=410 q=-0.0 size=N/A time=00:05:43.46 bitrate=N/A speed=17.1x    frame= 8492 fps=412 q=-0.0 size=N/A time=00:05:54.18 bitrate=N/A speed=17.2x    frame= 8702 fps=412 q=-0.0 size=N/A time=00:06:02.94 bitrate=N/A speed=17.2x    frame= 8948 fps=413 q=-0.0 size=N/A time=00:06:13.20 bitrate=N/A speed=17.2x    frame= 9220 fps=416 q=-0.0 size=N/A time=00:06:24.55 bitrate=N/A speed=17.3x    frame= 9470 fps=417 q=-0.0 size=N/A time=00:06:34.97 bitrate=N/A speed=17.4x    frame= 9734 fps=419 q=-0.0 size=N/A time=00:06:45.98 bitrate=N/A speed=17.5x    frame= 9995 fps=421 q=-0.0 size=N/A time=00:06:56.87 bitrate=N/A speed=17.6x    frame=10250 fps=423 q=-0.0 size=N/A time=00:07:07.51 bitrate=N/A speed=17.6x    frame=10493 fps=424 q=-0.0 size=N/A time=00:07:17.64 bitrate=N/A speed=17.7x    frame=10744 fps=425 q=-0.0 size=N/A time=00:07:28.11 bitrate=N/A speed=17.7x    frame=11006 fps=427 q=-0.0 size=N/A time=00:07:39.04 bitrate=N/A speed=17.8x    frame=11245 fps=428 q=-0.0 size=N/A time=00:07:49.01 bitrate=N/A speed=17.8x    frame=11487 fps=428 q=-0.0 size=N/A time=00:07:59.10 bitrate=N/A speed=17.9x    frame=11688 fps=428 q=-0.0 size=N/A time=00:08:07.48 bitrate=N/A speed=17.8x    frame=11892 fps=427 q=-0.0 size=N/A time=00:08:15.99 bitrate=N/A speed=17.8x    frame=12117 fps=427 q=-0.0 size=N/A time=00:08:25.42 bitrate=N/A speed=17.8x    frame=12330 fps=427 q=-0.0 size=N/A time=00:08:34.26 bitrate=N/A speed=17.8x    frame=12586 fps=428 q=-0.0 size=N/A time=00:08:44.94 bitrate=N/A speed=17.9x    frame=12843 fps=429 q=-0.0 size=N/A time=00:08:55.66 bitrate=N/A speed=17.9x    frame=13086 fps=430 q=-0.0 size=N/A time=00:09:05.79 bitrate=N/A speed=17.9x    frame=13323 fps=431 q=-0.0 size=N/A time=00:09:15.68 bitrate=N/A speed=  18x    frame=13600 fps=432 q=-0.0 size=N/A time=00:09:27.23 bitrate=N/A speed=  18x    frame=13870 fps=434 q=-0.0 size=N/A time=00:09:38.49 bitrate=N/A speed=18.1x    frame=14124 fps=435 q=-0.0 size=N/A time=00:09:49.08 bitrate=N/A speed=18.1x    frame=14359 fps=435 q=-0.0 size=N/A time=00:09:58.88 bitrate=N/A speed=18.1x    frame=14623 fps=436 q=-0.0 size=N/A time=00:10:09.90 bitrate=N/A speed=18.2x    frame=14870 fps=437 q=-0.0 size=N/A time=00:10:20.20 bitrate=N/A speed=18.2x    frame=15130 fps=438 q=-0.0 size=N/A time=00:10:31.04 bitrate=N/A speed=18.3x    frame=15355 fps=438 q=-0.0 size=N/A time=00:10:40.43 bitrate=N/A speed=18.3x    frame=15574 fps=438 q=-0.0 size=N/A time=00:10:49.56 bitrate=N/A speed=18.3x    frame=15804 fps=438 q=-0.0 size=N/A time=00:10:59.15 bitrate=N/A speed=18.3x    frame=16035 fps=438 q=-0.0 size=N/A time=00:11:08.79 bitrate=N/A speed=18.3x    frame=16307 fps=439 q=-0.0 size=N/A time=00:11:20.13 bitrate=N/A speed=18.3x    frame=16552 fps=440 q=-0.0 size=N/A time=00:11:30.35 bitrate=N/A speed=18.3x    frame=16831 fps=441 q=-0.0 size=N/A time=00:11:41.99 bitrate=N/A speed=18.4x    frame=17086 fps=442 q=-0.0 size=N/A time=00:11:52.62 bitrate=N/A speed=18.4x    frame=17354 fps=443 q=-0.0 size=N/A time=00:12:03.80 bitrate=N/A speed=18.5x    frame=17617 fps=444 q=-0.0 size=N/A time=00:12:14.77 bitrate=N/A speed=18.5x    frame=17889 fps=445 q=-0.0 size=N/A time=00:12:26.12 bitrate=N/A speed=18.5x    frame=18145 fps=445 q=-0.0 size=N/A time=00:12:36.79 bitrate=N/A speed=18.6x    frame=18410 fps=446 q=-0.0 size=N/A time=00:12:47.85 bitrate=N/A speed=18.6x    frame=18678 fps=447 q=-0.0 size=N/A time=00:12:59.02 bitrate=N/A speed=18.7x    frame=18937 fps=448 q=-0.0 size=N/A time=00:13:09.83 bitrate=N/A speed=18.7x    frame=19207 fps=449 q=-0.0 size=N/A time=00:13:21.09 bitrate=N/A speed=18.7x    frame=19485 fps=450 q=-0.0 size=N/A time=00:13:32.68 bitrate=N/A speed=18.8x    frame=19731 fps=450 q=-0.0 size=N/A time=00:13:42.94 bitrate=N/A speed=18.8x    frame=19972 fps=450 q=-0.0 size=N/A time=00:13:52.99 bitrate=N/A speed=18.8x    frame=20228 fps=451 q=-0.0 size=N/A time=00:14:03.67 bitrate=N/A speed=18.8x    frame=20456 fps=451 q=-0.0 size=N/A time=00:14:13.18 bitrate=N/A speed=18.8x    frame=20723 fps=451 q=-0.0 size=N/A time=00:14:24.32 bitrate=N/A speed=18.8x    frame=21000 fps=452 q=-0.0 size=N/A time=00:14:35.87 bitrate=N/A speed=18.9x    frame=21255 fps=453 q=-0.0 size=N/A time=00:14:46.51 bitrate=N/A speed=18.9x    frame=21528 fps=453 q=-0.0 size=N/A time=00:14:57.89 bitrate=N/A speed=18.9x    frame=21789 fps=454 q=-0.0 size=N/A time=00:15:08.78 bitrate=N/A speed=18.9x    frame=22040 fps=454 q=-0.0 size=N/A time=00:15:19.25 bitrate=N/A speed=18.9x    frame=22300 fps=455 q=-0.0 size=N/A time=00:15:30.09 bitrate=N/A speed=  19x    frame=22579 fps=456 q=-0.0 size=N/A time=00:15:41.73 bitrate=N/A speed=  19x    frame=22852 fps=457 q=-0.0 size=N/A time=00:15:53.11 bitrate=N/A speed=  19x    frame=23119 fps=457 q=-0.0 size=N/A time=00:16:04.25 bitrate=N/A speed=19.1x    frame=23373 fps=457 q=-0.0 size=N/A time=00:16:14.84 bitrate=N/A speed=19.1x    frame=23605 fps=458 q=-0.0 size=N/A time=00:16:24.52 bitrate=N/A speed=19.1x    frame=23852 fps=458 q=-0.0 size=N/A time=00:16:34.82 bitrate=N/A speed=19.1x    frame=24111 fps=458 q=-0.0 size=N/A time=00:16:45.62 bitrate=N/A speed=19.1x    frame=24355 fps=458 q=-0.0 size=N/A time=00:16:55.80 bitrate=N/A speed=19.1x    frame=24616 fps=459 q=-0.0 size=N/A time=00:17:06.69 bitrate=N/A speed=19.1x    frame=24854 fps=459 q=-0.0 size=N/A time=00:17:16.61 bitrate=N/A speed=19.1x    frame=25118 fps=459 q=-0.0 size=N/A time=00:17:27.62 bitrate=N/A speed=19.2x    frame=25392 fps=460 q=-0.0 size=N/A time=00:17:39.05 bitrate=N/A speed=19.2x    frame=25664 fps=461 q=-0.0 size=N/A time=00:17:50.40 bitrate=N/A speed=19.2x    frame=25925 fps=461 q=-0.0 size=N/A time=00:18:01.28 bitrate=N/A speed=19.2x    frame=26198 fps=462 q=-0.0 size=N/A time=00:18:12.67 bitrate=N/A speed=19.3x    frame=26473 fps=462 q=-0.0 size=N/A time=00:18:24.14 bitrate=N/A speed=19.3x    frame=26731 fps=463 q=-0.0 size=N/A time=00:18:34.90 bitrate=N/A speed=19.3x    frame=27013 fps=463 q=-0.0 size=N/A time=00:18:46.66 bitrate=N/A speed=19.3x    frame=27276 fps=464 q=-0.0 size=N/A time=00:18:57.63 bitrate=N/A speed=19.3x    frame=27548 fps=464 q=-0.0 size=N/A time=00:19:08.98 bitrate=N/A speed=19.4x    frame=27814 fps=465 q=-0.0 size=N/A time=00:19:20.07 bitrate=N/A speed=19.4x    frame=28029 fps=464 q=-0.0 size=N/A time=00:19:29.04 bitrate=N/A speed=19.4x    frame=28255 fps=464 q=-0.0 size=N/A time=00:19:38.46 bitrate=N/A speed=19.4x    frame=28533 fps=465 q=-0.0 size=N/A time=00:19:50.06 bitrate=N/A speed=19.4x    frame=28799 fps=465 q=-0.0 size=N/A time=00:20:01.15 bitrate=N/A speed=19.4x    frame=29031 fps=465 q=-0.0 size=N/A time=00:20:10.83 bitrate=N/A speed=19.4x    frame=29290 fps=465 q=-0.0 size=N/A time=00:20:21.63 bitrate=N/A speed=19.4x    frame=29513 fps=465 q=-0.0 size=N/A time=00:20:30.93 bitrate=N/A speed=19.4x    frame=29775 fps=465 q=-0.0 size=N/A time=00:20:41.86 bitrate=N/A speed=19.4x    frame=30027 fps=466 q=-0.0 size=N/A time=00:20:52.37 bitrate=N/A speed=19.4x    frame=30299 fps=466 q=-0.0 size=N/A time=00:21:03.72 bitrate=N/A speed=19.4x    frame=30576 fps=467 q=-0.0 size=N/A time=00:21:15.27 bitrate=N/A speed=19.5x    frame=30844 fps=467 q=-0.0 size=N/A time=00:21:26.45 bitrate=N/A speed=19.5x    frame=31113 fps=467 q=-0.0 size=N/A time=00:21:37.67 bitrate=N/A speed=19.5x    frame=31357 fps=468 q=-0.0 size=N/A time=00:21:47.84 bitrate=N/A speed=19.5x    frame=31617 fps=468 q=-0.0 size=N/A time=00:21:58.69 bitrate=N/A speed=19.5x    frame=31869 fps=468 q=-0.0 size=N/A time=00:22:09.20 bitrate=N/A speed=19.5x    frame=32093 fps=468 q=-0.0 size=N/A time=00:22:18.54 bitrate=N/A speed=19.5x    frame=32310 fps=467 q=-0.0 size=N/A time=00:22:27.59 bitrate=N/A speed=19.5x    frame=32567 fps=468 q=-0.0 size=N/A time=00:22:38.31 bitrate=N/A speed=19.5x    frame=32767 fps=467 q=-0.0 size=N/A time=00:22:46.65 bitrate=N/A speed=19.5x    frame=32956 fps=466 q=-0.0 size=N/A time=00:22:54.53 bitrate=N/A speed=19.4x    frame=33155 fps=466 q=-0.0 size=N/A time=00:23:02.83 bitrate=N/A speed=19.4x    frame=33381 fps=465 q=-0.0 size=N/A time=00:23:12.26 bitrate=N/A speed=19.4x    frame=33573 fps=465 q=-0.0 size=N/A time=00:23:20.27 bitrate=N/A speed=19.4x    frame=33735 fps=464 q=-0.0 size=N/A time=00:23:27.03 bitrate=N/A speed=19.3x    frame=33921 fps=463 q=-0.0 size=N/A time=00:23:34.78 bitrate=N/A speed=19.3x    frame=34099 fps=462 q=-0.0 size=N/A time=00:23:42.21 bitrate=N/A speed=19.3x    frame=34280 fps=461 q=-0.0 size=N/A time=00:23:49.76 bitrate=N/A speed=19.2x    frame=34441 fps=460 q=-0.0 size=N/A time=00:23:56.47 bitrate=N/A speed=19.2x    frame=34629 fps=460 q=-0.0 size=N/A time=00:24:04.31 bitrate=N/A speed=19.2x    frame=34832 fps=459 q=-0.0 size=N/A time=00:24:12.78 bitrate=N/A speed=19.2x    [Parsed_psnr_10 @ 0000019b3363a040] PSNR y:47.710433 u:50.021556 v:51.103056 average:48.463159 min:39.510820 max:inf
[out#0/null @ 0000019b335f6140] video:15006KiB audio:273140KiB subtitle:0KiB other streams:0KiB global headers:0KiB muxing overhead: unknown
frame=34923 fps=459 q=-0.0 Lsize=N/A time=00:24:16.58 bitrate=N/A speed=19.2x    
